Coordinates
version=1
nRows=40
nColumns=38
inDegrees=no

Units are S.I. units (second, meters, Newtons, ...)
If the header above contains a line with 'inDegrees', this indicates whether rotational values are in degrees (yes) or radians (no).

endheader
time	pelvis_tilt	pelvis_list	pelvis_rotation	pelvis_tx	pelvis_ty	pelvis_tz	hip_flexion_r	hip_adduction_r	hip_rotation_r	knee_angle_r	ankle_angle_r	subtalar_angle_r	mtp_angle_r	hip_flexion_l	hip_adduction_l	hip_rotation_l	knee_angle_l	ankle_angle_l	subtalar_angle_l	mtp_angle_l	lumbar_extension	lumbar_bending	lumbar_rotation	arm_flex_r	arm_add_r	arm_rot_r	elbow_flex_r	pro_sup_r	wrist_flex_r	wrist_dev_r	arm_flex_l	arm_add_l	arm_rot_l	elbow_flex_l	pro_sup_l	wrist_flex_l	wrist_dev_l
130	2.24115	1.49762	0.672705	1.01828	2.11552	1.0363	0.135476	-0.10378	-0.423904	0.481336	-0.238289	0	0	0.31572	-0.187564	-0.120785	0.881975	-0.288615	0	0	-0.168908	0.0929851	-0.103968	0.127714	-0.330611	0.467349	0.38443	1.13932	0	0	0.118207	-0.319318	0.703954	0.448454	1.19339	0	0
130.01	2.39224	1.39606	0.580384	1.01362	2.11258	1.02561	0.170604	-0.00921168	-0.473294	0.479999	-0.23826	0	0	0.409769	-0.190908	0.0949131	0.925624	-0.199886	0	0	-0.099881	0.204044	-0.12642	0.0890513	-0.406398	0.4742	0.492399	1.12717	0	0	0.0876453	-0.308375	0.677856	0.490322	1.19209	0	0
130.02	2.21358	1.44969	0.745201	1.00825	2.12217	1.03178	0.155221	-0.0609457	-0.43831	0.486584	-0.235665	0	0	0.36369	-0.156168	-0.0425099	0.823464	-0.221086	0	0	-0.110637	0.123983	-0.0949148	0.0980235	-0.380258	0.452516	0.46635	1.12129	0	0	0.0867092	-0.320026	0.674903	0.469957	1.19208	0	0
130.03	2.23754	1.45217	0.742232	1.00348	2.12506	1.03306	0.142849	-0.058825	-0.44696	0.485732	-0.237409	0	0	0.35978	-0.151381	-0.0821013	0.777039	-0.222859	0	0	-0.110082	0.119926	-0.0905779	0.0925039	-0.393092	0.430429	0.491516	1.12626	0	0	0.0813897	-0.321716	0.665915	0.473564	1.18806	0	0
130.04	2.25679	1.45426	0.743588	0.998642	2.12775	1.03411	0.131257	-0.0566029	-0.455141	0.484897	-0.23946	0	0	0.355338	-0.144342	-0.119914	0.731143	-0.223984	0	0	-0.109165	0.11598	-0.0858254	0.0848121	-0.406205	0.406483	0.517575	1.1329	0	0	0.0758613	-0.32331	0.65668	0.477657	1.18556	0	0
130.05	2.21495	1.51082	0.804521	0.995289	2.13048	1.04298	0.0834171	-0.100277	-0.462252	0.479411	-0.252904	0	0	0.28331	-0.118349	-0.267532	0.617387	-0.285526	0	0	-0.160231	0.0623516	-0.0843267	0.103581	-0.387264	0.357874	0.50227	1.16845	0	0	0.0927488	-0.329085	0.653348	0.461626	1.1851	0	0
130.06	2.30949	1.46412	0.728641	0.988892	2.13294	1.03659	0.102821	-0.054245	-0.468107	0.481224	-0.24612	0	0	0.332108	-0.126298	-0.215064	0.628614	-0.238951	0	0	-0.115159	0.104651	-0.0732726	0.0674509	-0.421392	0.331053	0.559217	1.18009	0	0	0.066107	-0.326765	0.636184	0.486491	1.1846	0	0
130.07	2.32633	1.46505	0.73385	0.984108	2.13504	1.03708	0.0924198	-0.0508658	-0.477965	0.48002	-0.245663	0	0	0.325318	-0.114533	-0.250823	0.580969	-0.23795	0	0	-0.113383	0.10169	-0.0712611	0.0605384	-0.431404	0.313056	0.576665	1.18107	0	0	0.0606409	-0.328773	0.629131	0.490239	1.18479	0	0
130.08	2.35954	1.46748	0.721628	0.979335	2.13699	1.0376	0.079809	-0.0474934	-0.487555	0.479003	-0.246406	0	0	0.315055	-0.103629	-0.295925	0.535333	-0.243639	0	0	-0.114962	0.0989258	-0.0681087	0.0523775	-0.440269	0.289622	0.594414	1.18386	0	0	0.0556352	-0.330589	0.621458	0.494086	1.18853	0	0
130.09	2.38575	1.46917	0.715761	0.97445	2.13877	1.03785	0.0685972	-0.0442553	-0.496688	0.478775	-0.247149	0	0	0.306861	-0.0906737	-0.337577	0.495279	-0.24805	0	0	-0.114734	0.0963106	-0.065662	0.0457646	-0.447687	0.269523	0.606885	1.1862	0	0	0.0499894	-0.331544	0.613093	0.496824	1.19106	0	0
130.1	2.4312	1.47354	0.689323	0.96947	2.14053	1.03836	0.0542019	-0.0417532	-0.504224	0.478862	-0.24805	0	0	0.292089	-0.0762734	-0.378299	0.442408	-0.287135	0	0	-0.118335	0.0926168	-0.0617567	0.0385408	-0.452401	0.243664	0.617572	1.19037	0	0	0.045038	-0.33183	0.601678	0.499164	1.19646	0	0
130.11	2.46861	1.47461	0.67108	0.964426	2.14199	1.03824	0.0434528	-0.0374711	-0.510885	0.48046	-0.247883	0	0	0.28365	-0.0611611	-0.414426	0.408435	-0.287412	0	0	-0.117372	0.0912256	-0.0590216	0.0325853	-0.457743	0.225786	0.623995	1.19223	0	0	0.0391876	-0.331788	0.594176	0.500833	1.19919	0	0
130.12	2.50812	1.47546	0.650358	0.959296	2.14322	1.03782	0.0338971	-0.0339153	-0.519053	0.485362	-0.247008	0	0	0.277773	-0.0454646	-0.453184	0.38436	-0.274953	0	0	-0.116054	0.0902346	-0.056396	0.0261777	-0.46266	0.208878	0.629407	1.19347	0	0	0.0329178	-0.331669	0.587573	0.502805	1.20102	0	0
130.13	2.55389	1.47477	0.624784	0.954199	2.14417	1.03714	0.0247522	-0.0287606	-0.526332	0.490955	-0.246657	0	0	0.273743	-0.0308904	-0.488929	0.362294	-0.269986	0	0	-0.114324	0.0911858	-0.0560872	0.0205401	-0.46709	0.194455	0.633309	1.19438	0	0	0.0256871	-0.331345	0.579727	0.50556	1.20024	0	0
130.14	2.60749	1.47376	0.593741	0.949337	2.14504	1.03655	0.0156105	-0.0227249	-0.534269	0.497483	-0.247061	0	0	0.267316	-0.0170713	-0.52052	0.334637	-0.275684	0	0	-0.11389	0.0925653	-0.0589005	0.0173724	-0.469375	0.182662	0.633595	1.19504	0	0	0.0191266	-0.331888	0.572394	0.508059	1.19885	0	0
130.15	2.79151	1.44376	0.439856	0.945008	2.1423	1.03384	0.00726944	0.0150281	-0.548088	0.5028	-0.251428	0	0	0.268021	-0.0355469	-0.534307	0.323811	-0.267267	0	0	-0.112125	0.138201	-0.0654334	0.00377415	-0.495027	0.17332	0.659627	1.19267	0	0	0.0123504	-0.31921	0.565005	0.512946	1.19922	0	0
130.16	2.75566	1.4707	0.492685	0.939527	2.14616	1.03508	-0.00390989	-0.0093792	-0.550197	0.516708	-0.251674	0	0	0.251322	0.00863543	-0.573272	0.283773	-0.280442	0	0	-0.116773	0.0984072	-0.0679197	0.0123311	-0.472895	0.166071	0.631802	1.19007	0	0	0.00740577	-0.333181	0.561557	0.510989	1.20162	0	0
130.17	2.81092	1.46719	0.460851	0.934745	2.14662	1.03396	-0.00791957	-0.00472567	-0.547565	0.538177	-0.253332	0	0	0.245323	0.0226713	-0.587766	0.255788	-0.279341	0	0	-0.115602	0.101785	-0.0728538	0.0102994	-0.472772	0.159325	0.627544	1.19087	0	0	0.00204771	-0.333636	0.558023	0.510686	1.20242	0	0
130.18	2.90573	1.46225	0.389741	0.929397	2.14689	1.03291	-0.0179367	0.00667481	-0.559925	0.546771	-0.256558	0	0	0.23755	0.0248817	-0.609683	0.244217	-0.276832	0	0	-0.117059	0.108349	-0.0769473	0.00573992	-0.472905	0.152442	0.624407	1.19085	0	0	-0.00407512	-0.333144	0.553355	0.510615	1.20238	0	0
130.19	2.89216	1.44652	0.430021	0.925219	2.14844	1.03061	-0.00480479	0.0217199	-0.550535	0.575561	-0.26361	0	0	0.248027	-0.019738	-0.516406	0.252201	-0.288771	0	0	-0.103305	0.11871	-0.081407	-0.000699046	-0.468182	0.140075	0.618173	1.19162	0	0	-0.00668931	-0.333464	0.553153	0.505945	1.2012	0	0
130.2	2.89488	1.38636	0.457358	0.919538	2.15099	1.02288	0.0240437	0.0891038	-0.555014	0.584669	-0.267721	0	0	0.299402	-0.0999218	-0.698132	0.322807	-0.253985	0	0	-0.0601437	0.173265	-0.0899883	-0.0287461	-0.479269	0.132675	0.641491	1.1883	0	0	-0.0297223	-0.337568	0.54736	0.528685	1.19734	0	0
130.21	3.03336	1.43244	0.332159	0.91457	2.14915	1.02767	-0.00989795	0.0396801	-0.553822	0.622475	-0.286588	0	0	0.231265	-0.024011	-0.540918	0.234228	-0.264098	0	0	-0.102135	0.132967	-0.0909389	-0.00353834	-0.46458	0.143531	0.603258	1.18479	0	0	-0.0195659	-0.334199	0.551873	0.503101	1.19197	0	0
130.22	3.05285	1.42841	0.330162	0.909525	2.14997	1.02555	0.000700649	0.0353093	-0.537365	0.672351	-0.299322	0	0	0.229007	-0.0248507	-0.552973	0.232472	-0.250238	0	0	-0.0970625	0.133799	-0.0892486	-0.00918191	-0.459928	0.139182	0.596785	1.1839	0	0	-0.0237334	-0.334975	0.553661	0.500527	1.186	0	0
130.23	3.01061	1.37197	0.397523	0.903587	2.15259	1.01718	0.0385876	0.0927894	-0.539644	0.697456	-0.307979	0	0	0.278685	-0.102987	-0.698132	0.300726	-0.206188	0	0	-0.0517577	0.181763	-0.0998475	-0.030708	-0.467231	0.144648	0.613092	1.17875	0	0	-0.0529851	-0.342751	0.542825	0.530531	1.17787	0	0
130.24	-3.13863	1.42321	0.267826	0.898595	2.15139	1.02161	0.0108061	0.0316837	-0.523951	0.747681	-0.333732	0	0	0.211132	-0.030795	-0.540196	0.231023	-0.208007	0	0	-0.0946106	0.133346	-0.0895623	-0.0084495	-0.450084	0.157847	0.575232	1.17101	0	0	-0.0397458	-0.340364	0.553565	0.50239	1.1693	0	0
130.25	-3.04939	1.42913	0.185808	0.892837	2.15167	1.01999	0.0100576	0.0173441	-0.502368	0.795438	-0.35652	0	0	0.184963	0.00483965	-0.612849	0.208067	-0.190595	0	0	-0.104122	0.126373	-0.0812023	-0.0110361	-0.446496	0.164323	0.571006	1.16709	0	0	-0.0462641	-0.343212	0.554402	0.50591	1.16185	0	0
130.26	-3.0437	1.42959	0.19135	0.887958	2.15289	1.01726	0.0262996	0.00794363	-0.479959	0.843892	-0.378187	0	0	0.185647	-0.00201515	-0.599642	0.225584	-0.171606	0	0	-0.10024	0.120798	-0.0788196	-0.010244	-0.438867	0.174658	0.56139	1.16196	0	0	-0.0537933	-0.347866	0.552761	0.509124	1.15455	0	0
130.27	-3.06362	1.43422	0.223742	0.883606	2.15416	1.01456	0.0465327	-0.00720267	-0.459222	0.891961	-0.400661	0	0	0.190327	-0.00492915	-0.591933	0.242801	-0.155917	0	0	-0.0944784	0.109742	-0.0791112	-0.00542684	-0.428258	0.188559	0.546475	1.15653	0	0	-0.0594415	-0.35289	0.552369	0.508814	1.14689	0	0
130.28	-3.08642	1.44175	0.259426	0.879564	2.15546	1.01207	0.0662185	-0.0252685	-0.438631	0.937317	-0.422659	0	0	0.199324	-0.00638928	-0.586337	0.27139	-0.140107	0	0	-0.0902596	0.0954741	-0.0800084	0.00126042	-0.416257	0.204824	0.529753	1.15173	0	0	-0.0633882	-0.358387	0.552896	0.507365	1.139	0	0
130.29	-3.1141	1.45189	0.30041	0.875782	2.15685	1.01001	0.0851531	-0.0450664	-0.416626	0.979029	-0.442368	0	0	0.209215	-0.00483228	-0.580436	0.304121	-0.126396	0	0	-0.0881144	0.0779809	-0.0816347	0.0104303	-0.402301	0.223899	0.51014	1.14763	0	0	-0.065736	-0.364298	0.553231	0.504507	1.13167	0	0
130.3	3.1271	1.46235	0.355918	0.872171	2.15801	1.00807	0.105786	-0.0679994	-0.39289	1.02527	-0.461246	0	0	0.219547	-0.00168773	-0.578212	0.337932	-0.114727	0	0	-0.0844671	0.0610765	-0.0795401	0.0147993	-0.390124	0.240727	0.493879	1.1431	0	0	-0.0628929	-0.367453	0.56003	0.495196	1.12598	0	0
130.31	3.12695	1.46741	0.376139	0.869169	2.15883	1.00674	0.118653	-0.0756047	-0.375022	1.04601	-0.483019	0	0	0.224768	-0.00212994	-0.558477	0.366099	-0.109528	0	0	-0.0865622	0.0524447	-0.0826384	0.0208738	-0.379491	0.260801	0.479546	1.13832	0	0	-0.0569598	-0.369556	0.568135	0.485252	1.11929	0	0
130.32	-3.05023	1.46825	0.290149	0.867524	2.15914	1.00519	0.122339	-0.0749992	-0.328363	1.06924	-0.49261	0	0	0.221275	-0.00765494	-0.547296	0.391183	-0.0937613	0	0	-0.10377	0.0605484	-0.0836419	-0.0603141	-0.228912	-0.332293	0.607608	1.5708	0	0	-0.0445721	-0.366448	0.580679	0.476564	1.10747	0	0
130.33	3.13558	1.47316	0.414366	0.864145	2.15958	1.0047	0.144751	-0.089858	-0.342191	1.08957	-0.528565	0	0	0.229204	0.00162763	-0.533004	0.391198	-0.0971354	0	0	-0.0912649	0.0433815	-0.0897364	0.0274973	-0.354335	0.265214	0.452038	1.18498	0	0	-0.0359885	-0.372268	0.609345	0.460973	1.0857	0	0
130.34	-3.12009	1.47281	0.40964	0.861747	2.15972	1.00397	0.155756	-0.0908523	-0.324491	1.10444	-0.542757	0	0	0.23171	-0.00215206	-0.522928	0.406487	-0.090859	0	0	-0.0938746	0.0443706	-0.0911013	0.0305074	-0.362404	0.346836	0.45437	1.1069	0	0	-0.0270768	-0.369778	0.618142	0.449512	1.08067	0	0
130.35	-3.06316	1.47279	0.376588	0.859743	2.15988	1.00381	0.163088	-0.0898508	-0.307426	1.11541	-0.545181	0	0	0.226973	-0.00476874	-0.514182	0.408353	-0.0886349	0	0	-0.0998386	0.0463884	-0.0929362	0.0343887	-0.359825	0.384608	0.449013	1.09671	0	0	-0.0168085	-0.367212	0.624645	0.438955	1.08225	0	0
130.36	-3.03904	1.47109	0.376081	0.857594	2.15996	1.00335	0.174045	-0.0878734	-0.290986	1.126	-0.533425	0	0	0.226523	-0.00770507	-0.503644	0.411688	-0.0849638	0	0	-0.101709	0.0496656	-0.0914529	0.0346261	-0.366025	0.448088	0.454082	1.05516	0	0	-0.0066595	-0.364366	0.633463	0.430486	1.0817	0	0
130.37	-2.99824	1.47052	0.358204	0.855608	2.16001	1.00334	0.182582	-0.0857189	-0.273884	1.1348	-0.512437	0	0	0.222472	-0.00957732	-0.49612	0.411178	-0.083139	0	0	-0.105154	0.0526366	-0.0895986	0.0371116	-0.371188	0.510133	0.457526	1.02331	0	0	0.00242789	-0.361808	0.639079	0.425054	1.08408	0	0
130.38	-2.97501	1.47175	0.354646	0.853485	2.16	1.0035	0.192335	-0.0854783	-0.252264	1.14231	-0.491941	0	0	0.217604	-0.00895422	-0.494891	0.407622	-0.0829295	0	0	-0.106549	0.053351	-0.0850324	0.0410733	-0.378125	0.582108	0.461654	0.985159	0	0	0.0101044	-0.357995	0.641845	0.41912	1.08758	0	0
130.39	-2.95255	1.47265	0.352012	0.851718	2.15987	1.0038	0.201918	-0.0849685	-0.229487	1.14729	-0.473876	0	0	0.212586	-0.00766899	-0.492309	0.402713	-0.0833531	0	0	-0.108128	0.0551801	-0.0805504	0.0468481	-0.386248	0.655719	0.467302	0.948938	0	0	0.0168577	-0.353492	0.640604	0.415448	1.0923	0	0
